<?xml version="1.0" encoding="UTF-8"?>
<svg version="1.1" xmlns="http://www.w3.org/2000/svg" width="482" height="241">
<path d="M0 0 C1.34311799 0.00475114 2.68623742 0.00911053 4.02935791 0.01309204 C23.38211334 0.07952643 42.39314068 0.57107413 61.5625 3.375 C62.79774414 3.54128906 64.03298828 3.70757812 65.30566406 3.87890625 C104.64033362 9.21175123 142.48077473 20.25057559 177.79052734 38.46240234 C179.36218802 39.27183574 180.94040813 40.06850462 182.51953125 40.86328125 C206.03088612 53.083678 229.54298922 73.9023157 238.5625 99.375 C243.7135417 118.46902205 242.28168967 136.2362675 232.7890625 153.58984375 C207.51251155 197.54185163 154.36831899 216.46645993 108.08203125 229.08300781 C23.61434764 250.84071804 -76.81165102 246.92243085 -188.4375 196.375 C-197.9193861 190.59848163 -206.09642412 183.42034499 -214.04785156 175.71337891 C-215.25111484 174.55450869 -216.47893873 173.42124253 -217.7109375 172.29296875 C-223.6442475 166.72316193 -228.07108547 160.18833593 -232.4375 153.375 C-232.87191406 152.70984375 -233.30632812 152.0446875 -233.75390625 151.359375 C-242.13489862 136.76658828 -242.28438387 117.48942747 -238.41503906 101.60522461 C-231.56063181 76.88202775 -207.94461055 55.77166723 -186.42089844 43.4921875 C-185.76637695 43.12351563 -185.11185547 42.75484375 -184.4375 42.375 C-183.70305664 41.95992187 -182.96861328 41.54484375 -182.21191406 41.1171875 C-127.03234375 10.29413638 -62.56178652 -0.3887386 0 0 Z M-71.1875 22.0625 C-71.94343445 22.19127533 -72.6993689 22.32005066 -73.47821045 22.45272827 C-114.19332229 29.42838687 -161.76460038 41.21565356 -193.4375 69.375 C-194.42492187 70.24253906 -195.41234375 71.11007813 -196.4296875 72.00390625 C-209.69840057 83.81788926 -222.21862702 96.92975179 -223.92578125 115.53125 C-224.69713469 130.72499735 -219.67998747 143.33661554 -210.4375 155.375 C-209.88191406 156.10203125 -209.32632813 156.8290625 -208.75390625 157.578125 C-181.50098689 190.77832413 -129.97215492 207.46745313 -89.4375 215.375 C-88.38546387 215.58608398 -87.33342773 215.79716797 -86.24951172 216.01464844 C-4.38393564 232.2802815 105.1696693 230.6594468 177.5 183.6875 C179.54009603 182.27747099 181.56231287 180.84109177 183.5625 179.375 C184.60019531 178.63636719 185.63789063 177.89773437 186.70703125 177.13671875 C202.49841519 165.63582403 219.54281892 151.25150531 224.125 131.34765625 C226.4300753 115.68549282 223.03358279 101.73757568 213.81640625 88.953125 C201.04257957 72.40112424 184.98321515 60.86916253 166.5625 51.375 C165.58555176 50.87105713 165.58555176 50.87105713 164.58886719 50.35693359 C126.60401825 31.06349001 84.58162922 22.98892246 42.5625 18.375 C41.77755661 18.28797318 40.99261322 18.20094635 40.18388367 18.11128235 C32.77677919 17.35628266 25.43003383 17.21391954 17.98828125 17.20703125 C16.7068071 17.20370285 15.42533295 17.20037445 14.10502625 17.19694519 C11.39968017 17.19099663 8.69436581 17.18910041 5.98901367 17.18969727 C3.26954395 17.18977783 0.55024517 17.18294061 -2.16918945 17.16918945 C-25.44025009 17.05359583 -48.23973484 18.08213654 -71.1875 22.0625 Z " fill="#000000" transform="translate(240.4375,-0.375)"/>
<path d="M0 0 C0.85352051 0.21205078 1.70704102 0.42410156 2.58642578 0.64257812 C23.53087155 5.96710048 44.00390607 13.67810451 63 24 C64.35545304 24.71487353 65.71092223 25.42971645 67.06640625 26.14453125 C76.08829329 30.98271004 84.09226557 36.49281799 92 43 C93.01707031 43.81339844 94.03414063 44.62679687 95.08203125 45.46484375 C106.50485949 55.38909479 116.67168615 70.69131701 118.203125 86.03515625 C118.62341219 104.2125771 108.81558981 118.57872951 96.84765625 131.28515625 C85.56680529 141.82982883 71.62344877 149.89110314 58 157 C57.0411792 157.50394287 57.0411792 157.50394287 56.06298828 158.01806641 C36.47046122 168.16304823 15.13228119 174.50173797 -6.30859375 179.38427734 C-8.73253078 179.93881011 -11.14738709 180.52179231 -13.5625 181.11328125 C-29.12559605 184.78804574 -45.12790246 186.26057717 -61 188 C-62.38747437 188.15577515 -62.38747437 188.15577515 -63.80297852 188.31469727 C-116.10091615 193.92677829 -171.62897797 189.4205376 -222 174 C-223.55968506 173.52626953 -223.55968506 173.52626953 -225.15087891 173.04296875 C-253.16854821 164.40759193 -281.5757999 152.52177669 -303 132 C-304.37865234 130.75089844 -304.37865234 130.75089844 -305.78515625 129.4765625 C-312.99394402 122.7139858 -317.68041386 115.82974226 -322 107 C-322.3815625 106.25492187 -322.763125 105.50984375 -323.15625 104.7421875 C-327.36571926 94.80316285 -326.24731564 80.6041457 -322.38671875 70.796875 C-312.60073831 51.05951728 -295.80757873 37.62928319 -277 27 C-276.34 26.62020996 -275.68 26.24041992 -275 25.84912109 C-232.9677213 1.86792899 -184.58833308 -6.71629585 -137 -11 C-136.22817383 -11.07347656 -135.45634766 -11.14695312 -134.66113281 -11.22265625 C-90.13549016 -15.38103718 -43.27319105 -10.80005443 0 0 Z M-158 1 C-159.78760742 1.2168042 -159.78760742 1.2168042 -161.61132812 1.43798828 C-206.73575518 7.12578248 -256.24021316 19.21812933 -292 49 C-293.28390625 50.02287109 -293.28390625 50.02287109 -294.59375 51.06640625 C-304.1956376 59.11243243 -314.65307701 71.36233477 -315.8125 84.3125 C-316.53463033 95.83518836 -312.80094956 106.03914103 -305.55859375 115.03125 C-303.09950151 117.75787388 -300.59197557 120.39980898 -298 123 C-297.27941406 123.76441406 -296.55882812 124.52882813 -295.81640625 125.31640625 C-288.39927485 132.38377001 -280.29552484 137.95894583 -271.4375 143.0625 C-269.86258789 143.97418945 -269.86258789 143.97418945 -268.25585938 144.90429688 C-260.36750538 149.39058739 -252.44602192 153.17147667 -243.9296875 156.28515625 C-242.0309678 156.98852812 -240.15648169 157.7364563 -238.28125 158.5 C-196.30376898 175.35998748 -150.02450867 180.21573427 -105.1875 180.3125 C-104.08236053 180.31635712 -102.97722107 180.32021423 -101.83859253 180.32418823 C-79.54807241 180.36250767 -57.39242429 179.25977916 -35.4375 175.25 C-33.94881852 174.98637182 -32.46013022 174.72278215 -30.97143555 174.45922852 C-18.18782667 172.16223259 -5.54268496 169.38191544 7 166 C7.70930664 165.81147461 8.41861328 165.62294922 9.14941406 165.42871094 C34.34873926 158.58367163 59.33806138 148.13051509 80 132 C80.79792969 131.41605469 81.59585937 130.83210937 82.41796875 130.23046875 C87.68166771 126.32457488 91.8848811 122.0867442 96 117 C96.598125 116.31164062 97.19625 115.62328125 97.8125 114.9140625 C104.74260217 106.63975947 108.8927929 97.8135513 108.3515625 86.875 C106.27041334 69.85582461 94.95072085 57.68485327 82.06640625 47.30078125 C70.68765873 38.7630968 58.73832898 32.28368706 46 26 C45.23107422 25.61666504 44.46214844 25.23333008 43.66992188 24.83837891 C27.07918274 16.72997949 8.80248078 12.58342391 -9 8 C-10.09393066 7.71463379 -11.18786133 7.42926758 -12.31494141 7.13525391 C-30.24460095 2.54310575 -48.62222598 0.80957621 -67 -1 C-67.98162109 -1.10602539 -68.96324219 -1.21205078 -69.97460938 -1.32128906 C-79.99618272 -2.31208246 -90.06427042 -2.24287706 -100.125 -2.25 C-101.60948639 -2.25151062 -101.60948639 -2.25151062 -103.1239624 -2.25305176 C-121.56264749 -2.24044715 -139.69932914 -1.22235985 -158 1 Z " fill="#000000" transform="translate(345,31)"/>
<path d="M0 0 C1.40897804 0.00333092 1.40897804 0.00333092 2.84642029 0.00672913 C3.90744461 0.00680466 4.96846893 0.00688019 6.06164551 0.00695801 C7.21579453 0.01211929 8.36994354 0.01728058 9.55906677 0.02259827 C10.73404221 0.02401321 11.90901764 0.02542816 13.11959839 0.02688599 C16.88981116 0.0325046 20.65996556 0.04506026 24.43016052 0.05775452 C26.97898779 0.06276712 29.52781599 0.06733044 32.0766449 0.07142639 C38.34033943 0.08248008 44.60399006 0.09975718 50.86766052 0.12025452 C50.86766052 6.72025452 50.86766052 13.32025452 50.86766052 20.12025452 C46.28930039 18.97566448 44.27724914 16.94600418 41.11766052 13.68275452 C40.61105896 13.17937561 40.1044574 12.6759967 39.58250427 12.15736389 C35.86766052 8.38744833 35.86766052 8.38744833 35.86766052 6.12025452 C30.25766052 6.12025452 24.64766052 6.12025452 18.86766052 6.12025452 C18.86766052 14.37025452 18.86766052 22.62025452 18.86766052 31.12025452 C25.77934687 30.13287075 26.78319057 29.89399558 31.49266052 25.55775452 C36.32475881 21.12025452 36.32475881 21.12025452 41.86766052 21.12025452 C41.86766052 29.04025452 41.86766052 36.96025452 41.86766052 45.12025452 C35.46460611 45.12025452 33.56720105 42.87766011 28.78172302 38.96791077 C25.4416484 36.57050966 25.4416484 36.57050966 18.86766052 36.12025452 C18.86766052 45.36025452 18.86766052 54.60025452 18.86766052 64.12025452 C28.72221008 64.97028278 28.72221008 64.97028278 37.78611755 61.79701233 C40.67645851 59.07926533 43.05712522 56.08272566 45.44969177 52.92884827 C46.6465863 51.53859436 46.6465863 51.53859436 47.86766052 50.12025452 C49.18766052 50.12025452 50.50766052 50.12025452 51.86766052 50.12025452 C51.86766052 56.39025452 51.86766052 62.66025452 51.86766052 69.12025452 C33.71766052 69.12025452 15.56766052 69.12025452 -3.13233948 69.12025452 C-1.48233948 67.47025452 0.16766052 65.82025452 1.86766052 64.12025452 C2.61403112 61.32994097 2.61403112 61.32994097 2.51463318 58.30775452 C2.53827438 56.59072327 2.53827438 56.59072327 2.56239319 54.83900452 C2.55227203 53.61181702 2.54215088 52.38462952 2.53172302 51.12025452 C2.53650665 49.85181702 2.54129028 48.58337952 2.54621887 47.27650452 C2.54961986 44.59594627 2.54293331 41.91767309 2.51951599 39.23744202 C2.49102594 35.81049597 2.50743754 32.38550771 2.53737831 28.95863342 C2.55984096 25.67910459 2.54409113 22.39980895 2.53172302 19.12025452 C2.54184418 17.89306702 2.55196533 16.66587952 2.56239319 15.40150452 C2.69905134 8.49030991 2.69905134 8.49030991 -0.67384338 2.80775452 C-1.48514709 2.25087952 -2.29645081 1.69400452 -3.13233948 1.12025452 C-2.13233948 0.12025452 -2.13233948 0.12025452 0 0 Z " fill="#000000" transform="translate(180.13233947753906,84.87974548339844)"/>
<path d="M0 0 C8.58 0 17.16 0 26 0 C25.34 1.32 24.68 2.64 24 4 C22.57130493 7.14420219 22.57130493 7.14420219 24.65234375 10.57421875 C25.40387723 11.95092168 26.1660567 13.32185409 26.9375 14.6875 C27.32357422 15.38939453 27.70964844 16.09128906 28.10742188 16.81445312 C29.06261773 18.54795672 30.03015386 20.27465009 31 22 C34.59103005 20.80298998 34.98322593 19.88098551 36.9375 16.75 C39.12462697 13.33022791 41.38688074 10.11564219 44 7 C43.690625 6.401875 43.38125 5.80375 43.0625 5.1875 C42 3 42 3 41 0 C48.26 0 55.52 0 63 0 C60.8533403 4.29331941 60.78496772 4.10751614 57 6 C56.31752424 7.32531093 55.65389872 8.66035875 55 10 C53.89539026 11.57544107 52.75659163 13.12719291 51.59375 14.66015625 C50.93246094 15.53607422 50.27117187 16.41199219 49.58984375 17.31445312 C48.90019531 18.22130859 48.21054687 19.12816406 47.5 20.0625 C46.13475712 21.86538616 44.77014598 23.66875094 43.40625 25.47265625 C42.80103516 26.26937744 42.19582031 27.06609863 41.57226562 27.88696289 C40.33113083 29.55497868 39.1532819 31.27007714 38 33 C40.18376246 36.57667368 42.37098762 40.15119984 44.5612793 43.72387695 C45.30406878 44.93652546 46.04595146 46.14972994 46.78686523 47.36352539 C52.50678319 58.58867994 52.50678319 58.58867994 61 67 C61 67.66 61 68.32 61 69 C52.75 69 44.5 69 36 69 C36.99 67.68 37.98 66.36 39 65 C38.88568343 60.44257926 36.37708359 57.06597621 33.9375 53.375 C30 47.39807692 30 47.39807692 30 44 C26.06437782 47.69709962 23.00860353 51.54514126 20.0625 56.0625 C19.63904297 56.67416016 19.21558594 57.28582031 18.77929688 57.91601562 C17.42269287 59.90779869 17.42269287 59.90779869 16 63 C16.53855317 65.33443965 16.53855317 65.33443965 18 67 C18.495 67.99 18.495 67.99 19 69 C11.08 69 3.16 69 -5 69 C-3.35 67.35 -1.7 65.7 0 64 C2.63330016 60.9825716 5.13760104 57.86938211 7.62451172 54.73046875 C8.60957602 53.49118303 9.60160161 52.25741812 10.59814453 51.02734375 C12.29257451 48.92831037 13.9606378 46.81042345 15.625 44.6875 C16.170354 44.01807373 16.71570801 43.34864746 17.27758789 42.65893555 C17.77637451 42.012229 18.27516113 41.36552246 18.7890625 40.69921875 C19.46509521 39.84589966 19.46509521 39.84589966 20.15478516 38.9753418 C21.42826837 35.99909896 20.82579106 34.09130579 20 31 C18.61135001 28.02622091 18.61135001 28.02622091 16.796875 25.0859375 C16.14589844 23.99539062 15.49492187 22.90484375 14.82421875 21.78125 C14.13972656 20.6571875 13.45523438 19.533125 12.75 18.375 C12.08097656 17.24320313 11.41195312 16.11140625 10.72265625 14.9453125 C9.73845703 13.31335938 9.73845703 13.31335938 8.734375 11.6484375 C8.13850586 10.66020996 7.54263672 9.67198242 6.92871094 8.65380859 C4.90242063 5.86573573 2.69917817 4.11015027 0 2 C0 1.34 0 0.68 0 0 Z " fill="#000000" transform="translate(242,85)"/>
<path d="M0 0 C7.6781452 4.20222812 16.95128577 8.05927653 25.796875 7.99609375 C26.59609375 7.99287109 27.3953125 7.98964844 28.21875 7.98632812 C29.04375 7.97794922 29.86875 7.96957031 30.71875 7.9609375 C31.55921875 7.95642578 32.3996875 7.95191406 33.265625 7.94726562 C35.33336401 7.93551711 37.40106624 7.91758272 39.46875 7.8984375 C39.46875 8.8884375 39.46875 9.8784375 39.46875 10.8984375 C34.07953168 13.58595558 29.95451951 14.34478744 23.96875 14.2109375 C23.24816406 14.21416016 22.52757812 14.21738281 21.78515625 14.22070312 C15.77539094 14.1609315 10.56397254 13.29525252 5.46875 9.8984375 C5.46875 11.2184375 5.46875 12.5384375 5.46875 13.8984375 C-0.40755699 13.77554895 -5.11964506 13.41103656 -10.21875 10.3359375 C-17.1781861 6.50046553 -26.45640109 6.52220729 -34.06640625 8.5859375 C-35.44064122 9.12021951 -36.81065381 9.66551526 -38.17578125 10.22265625 C-43.81731577 11.84120596 -51.49077008 12.18044923 -56.94921875 9.87890625 C-57.73232422 9.39357422 -57.73232422 9.39357422 -58.53125 8.8984375 C-58.53125 8.2384375 -58.53125 7.5784375 -58.53125 6.8984375 C-57.67402344 6.77726562 -56.81679688 6.65609375 -55.93359375 6.53125 C-49.98820509 5.65988526 -44.24976412 4.76027931 -38.53125 2.8984375 C-38.02883678 0.5688428 -38.02883678 0.5688428 -38.53125 -2.1015625 C-43.75113022 -7.47496861 -51.40078126 -7.50276071 -58.53125 -8.1015625 C-60.86441833 -8.12931079 -63.19819064 -8.1373182 -65.53125 -8.1015625 C-64.63921875 -8.00359375 -63.7471875 -7.905625 -62.828125 -7.8046875 C-61.65765625 -7.65515625 -60.4871875 -7.505625 -59.28125 -7.3515625 C-58.12109375 -7.21234375 -56.9609375 -7.073125 -55.765625 -6.9296875 C-52.18479905 -6.01285767 -50.84410482 -4.91820748 -48.53125 -2.1015625 C-49.57116908 1.24928785 -50.54782413 1.90721204 -53.71875 3.5859375 C-64.37381538 7.62827158 -75.90301382 6.35581553 -86.53125 2.8984375 C-88.87890625 1.4765625 -88.87890625 1.4765625 -90.53125 -0.1015625 C-91.15625 -3.0390625 -91.15625 -3.0390625 -90.53125 -6.1015625 C-68.71021407 -26.74308297 -21.82312511 -13.06384324 0 0 Z M-79.53125 -6.1015625 C-80.19125 -5.4415625 -80.85125 -4.7815625 -81.53125 -4.1015625 C-81.2127323 -1.99335453 -81.2127323 -1.99335453 -80.53125 -0.1015625 C-79.54125 -0.4315625 -78.55125 -0.7615625 -77.53125 -1.1015625 C-77.20125 -2.7515625 -76.87125 -4.4015625 -76.53125 -6.1015625 C-77.52125 -6.1015625 -78.51125 -6.1015625 -79.53125 -6.1015625 Z " fill="#000000" transform="translate(356.53125,64.1015625)"/>
<path d="M0 0 C1.23339111 0.00418945 2.46678223 0.00837891 3.73754883 0.01269531 C31.29164746 0.35414746 31.29164746 0.35414746 39.25 8.3125 C39.6875 11.125 39.6875 11.125 39.25 14.3125 C33.60911532 19.80092834 25.32772702 20.34482741 17.75 20.5625 C11.32795881 20.40050256 3.7781233 19.82241955 -1.75 16.3125 C-2.5 13.6875 -2.5 13.6875 -2.75 11.3125 C0.6399808 8.24976982 3.52315343 7.70699005 8 7.125 C9.17046875 6.96644531 10.3409375 6.80789062 11.546875 6.64453125 C12.43890625 6.53496094 13.3309375 6.42539062 14.25 6.3125 C-0.31843341 6.05407088 -0.31843341 6.05407088 -12.75 12.3125 C-12.73449285 14.36120951 -12.73449285 14.36120951 -11.75 16.3125 C-6.37214148 20.09380677 -0.14892207 20.90621923 6.25 21.3125 C6.25 22.3025 6.25 23.2925 6.25 24.3125 C-0.27795745 26.48848582 -8.72907566 26.44028287 -15.125 23.8125 C-22.10229931 21.09983036 -31.61890145 20.76125303 -38.65234375 23.40234375 C-40.26173444 24.27949981 -41.85563521 25.1859044 -43.4296875 26.125 C-47.25905729 28.08481215 -51.47067213 28.63344959 -55.75 28.3125 C-56.41 27.6525 -57.07 26.9925 -57.75 26.3125 C-57.42 25.6525 -57.09 24.9925 -56.75 24.3125 C-57.27464844 24.60125 -57.79929688 24.89 -58.33984375 25.1875 C-64.07944747 27.93792574 -69.15990696 28.72270315 -75.4375 28.75 C-76.14962646 28.75966797 -76.86175293 28.76933594 -77.59545898 28.77929688 C-82.64381349 28.69961993 -86.22667084 27.54748701 -90.75 25.3125 C-90.75 24.3225 -90.75 23.3325 -90.75 22.3125 C-89.63625 22.37050781 -88.5225 22.42851563 -87.375 22.48828125 C-71.74098127 23.05613201 -60.14814039 19.62240818 -46.76049805 11.69726562 C-32.00867384 3.05781591 -17.00303953 -0.07869099 0 0 Z M25.25 8.3125 C25.58 10.2925 25.91 12.2725 26.25 14.3125 C27.57 13.9825 28.89 13.6525 30.25 13.3125 C29.92 11.9925 29.59 10.6725 29.25 9.3125 C27.93 8.9825 26.61 8.6525 25.25 8.3125 Z " fill="#000000" transform="translate(176.75,49.6875)"/>
<path d="M0 0 C0 0.99 0 1.98 0 3 C0.54785156 2.71125 1.09570312 2.4225 1.66015625 2.125 C10.75814409 -2.13552113 20.8568481 -2.65829061 30.4375 0.5 C32.2009375 1.2425 32.2009375 1.2425 34 2 C34 2.99 34 3.98 34 5 C33.14003418 5.01401855 33.14003418 5.01401855 32.26269531 5.02832031 C29.5910192 5.08297554 26.92092196 5.16642013 24.25 5.25 C22.89841797 5.27126953 22.89841797 5.27126953 21.51953125 5.29296875 C9.57358655 5.71658381 -0.12898349 10.29990368 -10.4375 16 C-32.68647864 27.95271761 -59.43411304 31.05965361 -84.1875 24.9296875 C-92.97510373 22.02489627 -92.97510373 22.02489627 -96 19 C-96.4375 16.1875 -96.4375 16.1875 -96 13 C-90.24865485 7.08433071 -80.72242165 7.06041467 -72.875 6.6875 C-66.0005228 7.24189332 -59.38777121 8.50599457 -54 13 C-54.375 15.3125 -54.375 15.3125 -56 18 C-63.29475435 21.96942485 -71.05741801 21.03328261 -79 20 C-67.42339748 22.05806267 -54.36656828 22.16390546 -44 16 C-44.12852983 13.5604653 -44.12852983 13.5604653 -45 11 C-47.11162019 9.56043441 -47.11162019 9.56043441 -49.75 8.75 C-50.61109375 8.43546875 -51.4721875 8.1209375 -52.359375 7.796875 C-54.89428102 7.03190336 -57.3954796 6.46843892 -60 6 C-60 5.01 -60 4.02 -60 3 C-56.57915327 1.85971776 -54.33310842 2.03335086 -50.75 2.3125 C-49.65171875 2.39113281 -48.5534375 2.46976563 -47.421875 2.55078125 C-44 3 -44 3 -40.57421875 4.01953125 C-36.68552653 5.0862654 -33.06535852 5.38362685 -29.0625 5.375 C-28.35738281 5.37483887 -27.65226562 5.37467773 -26.92578125 5.37451172 C-22.12190576 5.26887094 -18.7788955 4.5386195 -14.73046875 2.02734375 C-10.19276675 -0.66659672 -5.07855181 -1.58704744 0 0 Z M-87 14 C-87 14.99 -87 15.98 -87 17 C-84.525 17.99 -84.525 17.99 -82 19 C-82.33 17.02 -82.66 15.04 -83 13 C-85.0745356 12.8509288 -85.0745356 12.8509288 -87 14 Z " fill="#000000" transform="translate(362,163)"/>
<path d="M0 0 C1.68281747 0.7780444 1.68281747 0.7780444 3.671875 0.65625 C3.671875 -0.33375 3.671875 -1.32375 3.671875 -2.34375 C10.80832106 -2.0457773 16.33214425 -0.62292108 22.671875 2.65625 C30.35633393 6.49847947 43.06325239 3.36272565 50.8203125 1.33203125 C54.63417258 0.42819866 57.77315862 0.29525774 61.671875 0.65625 C62.661875 1.31625 63.651875 1.97625 64.671875 2.65625 C64.341875 3.31625 64.011875 3.97625 63.671875 4.65625 C61.8515625 5.1484375 61.8515625 5.1484375 59.546875 5.53125 C54.90625377 6.45194925 51.64476006 8.12036592 47.671875 10.65625 C48.02889263 13.24462782 48.4108419 14.4128625 50.34765625 16.21875 C53.13501067 17.94269357 55.37493605 18.3665377 58.609375 18.84375 C59.62902344 19.00230469 60.64867187 19.16085938 61.69921875 19.32421875 C64.39072896 19.62484735 66.96727649 19.72100098 69.671875 19.65625 C68.97320312 19.48609375 68.27453125 19.3159375 67.5546875 19.140625 C66.64460938 18.89828125 65.73453125 18.6559375 64.796875 18.40625 C63.89195312 18.17421875 62.98703125 17.9421875 62.0546875 17.703125 C59.671875 16.65625 59.671875 16.65625 58.3515625 14.546875 C58.12726563 13.92296875 57.90296875 13.2990625 57.671875 12.65625 C62.49505279 7.29716357 67.59704994 5.98397843 74.66796875 5.52734375 C83.78584124 5.28355037 92.01617667 6.55245111 99.671875 11.65625 C100.046875 14.40625 100.046875 14.40625 99.671875 17.65625 C90.63285768 26.20667179 75.15193703 25.84291146 63.52392578 25.84155273 C61.44152069 25.84372946 59.35965473 25.86189345 57.27734375 25.88085938 C38.85455072 25.96028042 24.18589404 20.36558042 8.21948242 11.57836914 C-1.27409637 6.40588099 -9.05766764 4.21967886 -19.890625 3.96875 C-20.89931641 3.93458984 -21.90800781 3.90042969 -22.94726562 3.86523438 C-25.40744068 3.78361719 -27.86729809 3.71419324 -30.328125 3.65625 C-30.328125 2.66625 -30.328125 1.67625 -30.328125 0.65625 C-20.46432557 -3.42532218 -10.01046948 -4.06440114 0 0 Z M86.671875 11.65625 C86.341875 13.63625 86.011875 15.61625 85.671875 17.65625 C87.321875 16.99625 88.971875 16.33625 90.671875 15.65625 C90.341875 14.33625 90.011875 13.01625 89.671875 11.65625 C88.681875 11.65625 87.691875 11.65625 86.671875 11.65625 Z M76.671875 18.65625 C76.671875 18.98625 76.671875 19.31625 76.671875 19.65625 C79.58839674 19.82306109 79.58839674 19.82306109 82.671875 19.65625 C83.331875 18.99625 83.991875 18.33625 84.671875 17.65625 C81.83220269 17.65625 79.43451789 18.05892181 76.671875 18.65625 Z " fill="#000000" transform="translate(116.328125,164.34375)"/>
<path d="M0 0 C19.8 0 39.6 0 60 0 C60 7.26 60 14.52 60 22 C55 22 55 22 53.60620117 20.65478516 C53.07990112 19.73125244 53.07990112 19.73125244 52.54296875 18.7890625 C52.15302734 18.12132813 51.76308594 17.45359375 51.36132812 16.765625 C50.97396484 16.05921875 50.58660156 15.3528125 50.1875 14.625 C49.57745117 13.57699219 49.57745117 13.57699219 48.95507812 12.5078125 C46 7.34263393 46 7.34263393 46 5 C43.36 5 40.72 5 38 5 C38.01488838 12.60659443 38.05654185 20.21264625 38.13209057 27.81887341 C38.16633916 31.35109587 38.19146704 34.88288686 38.19555664 38.4152832 C38.20066532 42.47919838 38.24579176 46.54182261 38.29296875 50.60546875 C38.2890361 51.8702153 38.28510345 53.13496185 38.28105164 54.43803406 C38.30069473 55.61888077 38.32033783 56.79972748 38.34057617 58.01635742 C38.34723801 59.05338303 38.35389984 60.09040863 38.36076355 61.15885925 C38.9154879 64.80656696 38.9154879 64.80656696 44 69 C34.76 69 25.52 69 16 69 C17.65 67.35 19.3 65.7 21 64 C21.75108706 61.13322281 21.75108706 61.13322281 21.65942383 58.01635742 C21.67906693 56.83551071 21.69871002 55.654664 21.71894836 54.43803406 C21.71501572 53.17328751 21.71108307 51.90854095 21.70703125 50.60546875 C21.72215256 49.30297684 21.73727386 48.00048492 21.75285339 46.65852356 C21.79263821 43.20774671 21.80288942 39.75749768 21.80688477 36.30651855 C21.81622882 32.78035538 21.85365009 29.25450072 21.88867188 25.72851562 C21.95318036 18.81905428 21.98647556 11.90974415 22 5 C16.67047813 5.13031474 16.67047813 5.13031474 12.265625 7.58227539 C11.93046875 8.24735107 11.5953125 8.91242676 11.25 9.59765625 C10.86972656 10.31630859 10.48945313 11.03496094 10.09765625 11.77539062 C9.73542969 12.53013672 9.37320312 13.28488281 9 14.0625 C8.41025391 15.20041992 8.41025391 15.20041992 7.80859375 16.36132812 C6.84612876 18.22757122 5.91943206 20.11218464 5 22 C3.35 22 1.7 22 0 22 C0 14.74 0 7.48 0 0 Z " fill="#000000" transform="translate(310,85)"/>
<path d="M0 0 C19.47 0 38.94 0 59 0 C59 7.26 59 14.52 59 22 C54 21 54 21 52.71728516 19.52539062 C52.41097168 18.90857422 52.1046582 18.29175781 51.7890625 17.65625 C51.43070313 16.98722656 51.07234375 16.31820312 50.703125 15.62890625 C49.98596274 14.21277062 49.27498394 12.7934861 48.5703125 11.37109375 C48.02890625 10.36755859 48.02890625 10.36755859 47.4765625 9.34375 C47.16799316 8.72693359 46.85942383 8.11011719 46.54150391 7.47460938 C44.50035997 5.23563047 44.50035997 5.23563047 38 5 C38 24.8 38 44.6 38 65 C39.32 65.66 40.64 66.32 42 67 C42.33 67.66 42.66 68.32 43 69 C34.09 69 25.18 69 16 69 C17.65 67.35 19.3 65.7 21 64 C21.75108706 61.13322281 21.75108706 61.13322281 21.65942383 58.01635742 C21.67906693 56.83551071 21.69871002 55.654664 21.71894836 54.43803406 C21.71501572 53.17328751 21.71108307 51.90854095 21.70703125 50.60546875 C21.72215256 49.30297684 21.73727386 48.00048492 21.75285339 46.65852356 C21.79263821 43.20774671 21.80288942 39.75749768 21.80688477 36.30651855 C21.81622882 32.78035538 21.85365009 29.25450072 21.88867188 25.72851562 C21.95318036 18.81905428 21.98647556 11.90974415 22 5 C16.67047813 5.13031474 16.67047813 5.13031474 12.265625 7.58227539 C11.93046875 8.24735107 11.5953125 8.91242676 11.25 9.59765625 C10.86972656 10.31630859 10.48945312 11.03496094 10.09765625 11.77539062 C9.73542969 12.53013672 9.37320313 13.28488281 9 14.0625 C8.41025391 15.20041992 8.41025391 15.20041992 7.80859375 16.36132812 C6.84612876 18.22757122 5.91943206 20.11218464 5 22 C3.35 22 1.7 22 0 22 C0 14.74 0 7.48 0 0 Z " fill="#000000" transform="translate(111,85)"/>
<path d="M0 0 C2.475 0.495 2.475 0.495 5 1 C5.495 2.485 5.495 2.485 6 4 C7.423125 3.9690625 7.423125 3.9690625 8.875 3.9375 C12 4 12 4 14 5 C13.34 6.65 12.68 8.3 12 10 C12.74765625 10.37511719 13.4953125 10.75023437 14.265625 11.13671875 C19.61503922 13.91645362 23.40355037 16.07153199 27 21 C31.67495703 23.8267182 36.81262435 25.3746223 42 27 C40.5 29 40.5 29 38 31 C32.39822397 31.63245858 28.81326533 31.17237942 24 28 C20 23.68421053 20 23.68421053 20 21 C17.69 21.33 15.38 21.66 13 22 C13.69867188 22.40992188 14.39734375 22.81984375 15.1171875 23.2421875 C16.02726562 23.78101563 16.93734375 24.31984375 17.875 24.875 C18.77992188 25.40867188 19.68484375 25.94234375 20.6171875 26.4921875 C23 28 23 28 25 30 C25.4375 32.4375 25.4375 32.4375 25 35 C21.72821183 37.63560713 20.27931853 38 16 38 C16 37.2575 16 36.515 16 35.75 C14.79334286 32.43169286 14.01007481 32.19940189 10.9375 30.6875 C9.63271056 30.10733879 8.32226452 29.53914658 7 29 C7.53625 29.721875 8.0725 30.44375 8.625 31.1875 C10 34 10 34 9.4375 36.5625 C7.84284226 39.26648486 6.5295148 41.12093186 4 43 C1.5625 43.125 1.5625 43.125 -1 42 C-2.90146615 40.11411964 -4.39082371 38.16089388 -6 36 C-4.125 31.25 -4.125 31.25 -3 29 C-4.11375 29.66 -5.2275 30.32 -6.375 31 C-9.75 33 -9.75 33 -12 33 C-12 34.65 -12 36.3 -12 38 C-15.73487777 37.5020163 -17.81237635 37.12508244 -21 35 C-21.125 32.375 -21.125 32.375 -20 29 C-17.48770216 27.13824606 -14.9089264 25.67223136 -12.15234375 24.19921875 C-11.44207031 23.80347656 -10.73179687 23.40773437 -10 23 C-10 22.67 -10 22.34 -10 22 C-11.98 21.67 -13.96 21.34 -16 21 C-16.226875 21.7425 -16.45375 22.485 -16.6875 23.25 C-18.266155 26.55765809 -19.99614099 27.94858409 -23 30 C-27.25800538 31.41933513 -31.22911538 31.72651677 -35.4375 30 C-35.953125 29.67 -36.46875 29.34 -37 29 C-37 28.01 -37 27.02 -37 26 C-36.34773437 25.82984375 -35.69546875 25.6596875 -35.0234375 25.484375 C-28.40424872 23.64896572 -23.45286137 21.58195933 -18.625 16.5 C-15.40563036 13.43393367 -12.02955445 11.7898021 -8 10 C-8.185625 9.195625 -8.37125 8.39125 -8.5625 7.5625 C-8.706875 6.716875 -8.85125 5.87125 -9 5 C-8 4 -8 4 -4.9375 3.9375 C-3.4834375 3.9684375 -3.4834375 3.9684375 -2 4 C-1.34 2.68 -0.68 1.36 0 0 Z " fill="#000000" transform="translate(239,164)"/>
<path d="M0 0 C3.49054644 0.68442087 4.0446709 1.09641438 6.1875 3.75 C8.14992334 6.80888844 8.25250561 7.29997195 7.5 11.0625 C7.066875 11.908125 6.63375 12.75375 6.1875 13.625 C9.71442672 12.49483745 9.71442672 12.49483745 13.1875 10.625 C14.23917527 8.04767086 14.23917527 8.04767086 14.1875 5.625 C17.92237777 6.1229837 19.99987635 6.49991756 23.1875 8.625 C23.625 11 23.625 11 23.1875 13.625 C20.08368586 18.07829855 15.05826515 19.66836785 10.1875 21.625 C12.8275 21.955 15.4675 22.285 18.1875 22.625 C18.414375 21.8825 18.64125 21.14 18.875 20.375 C20.53115278 16.9049656 21.87554638 15.59807875 25.1875 13.625 C30.235521 12.36070436 34.49923588 12.05401645 39.1875 14.625 C38.8575 15.945 38.5275 17.265 38.1875 18.625 C37.3521875 18.71974609 37.3521875 18.71974609 36.5 18.81640625 C30.55327527 19.77069485 27.35670366 21.75084432 23.03125 25.87890625 C19.23354322 29.47546331 15.09788508 31.89192291 10.1875 33.625 C10.8475 35.275 11.5075 36.925 12.1875 38.625 C9.5475 38.955 6.9075 39.285 4.1875 39.625 C4.1875 40.615 4.1875 41.605 4.1875 42.625 C1.375 43.3125 1.375 43.3125 -1.8125 43.625 C-3.3125 42.3125 -3.3125 42.3125 -4.8125 40.625 C-7.91257201 39.42450593 -7.91257201 39.42450593 -10.8125 38.625 C-10.4825 36.975 -10.1525 35.325 -9.8125 33.625 C-10.47636719 33.33367187 -11.14023438 33.04234375 -11.82421875 32.7421875 C-19.92296744 28.98247643 -19.92296744 28.98247643 -22.5 25.5 C-26.60152684 20.40080447 -32.71253259 19.2433587 -38.8125 17.625 C-38.8125 16.635 -38.8125 15.645 -38.8125 14.625 C-34.1429061 12.06425496 -29.83138134 12.24899738 -24.8125 13.625 C-21.59821997 15.41590862 -19.27132304 17.41239624 -17.9375 20.9375 C-17.89625 21.494375 -17.855 22.05125 -17.8125 22.625 C-13.8525 22.13 -13.8525 22.13 -9.8125 21.625 C-10.58335937 21.22667969 -11.35421875 20.82835938 -12.1484375 20.41796875 C-13.65277344 19.62326172 -13.65277344 19.62326172 -15.1875 18.8125 C-16.18523437 18.29042969 -17.18296875 17.76835938 -18.2109375 17.23046875 C-20.8125 15.625 -20.8125 15.625 -22.8125 12.625 C-22.75 10.0625 -22.75 10.0625 -21.8125 7.625 C-18.92340151 6.02839294 -17.12191204 5.625 -13.8125 5.625 C-13.791875 6.388125 -13.77125 7.15125 -13.75 7.9375 C-13.01589051 11.03889118 -13.01589051 11.03889118 -9.25 12.4375 C-8.115625 12.829375 -6.98125 13.22125 -5.8125 13.625 C-6.204375 12.903125 -6.59625 12.18125 -7 11.4375 C-7.8125 8.625 -7.8125 8.625 -6.5625 6 C-5.985 5.21625 -5.4075 4.4325 -4.8125 3.625 C-2.8125 0.625 -2.8125 0.625 0 0 Z M3.1875 15.625 C4.1875 17.625 4.1875 17.625 4.1875 17.625 Z " fill="#000000" transform="translate(240.8125,32.375)"/>
<path d="M0 0 C1.67542976 0.28604898 3.34385343 0.61781233 5 1 C4.67 2.65 4.34 4.3 4 6 C2.68 5.67 1.36 5.34 0 5 C-0.5625 3.0625 -0.5625 3.0625 -1 1 C-0.67 0.67 -0.34 0.34 0 0 Z " fill="#000000" transform="translate(428,117)"/>
<path d="M0 0 C1.67542976 0.28604898 3.34385343 0.61781233 5 1 C4.67 2.65 4.34 4.3 4 6 C2.68 5.67 1.36 5.34 0 5 C-0.5625 3.0625 -0.5625 3.0625 -1 1 C-0.67 0.67 -0.34 0.34 0 0 Z " fill="#000000" transform="translate(50,117)"/>
</svg>
